<svg width="48" height="49" viewBox="0 0 48 49" fill="none" xmlns="http://www.w3.org/2000/svg">
<path d="M21.1437 33.2821V30.2152C21.1437 29.4381 21.7757 28.8067 22.5584 28.8018H25.4326C26.2189 28.8018 26.8563 29.4346 26.8563 30.2152V33.2732C26.8562 33.9473 27.404 34.4951 28.0829 34.5H30.0438C30.9596 34.5023 31.8388 34.1428 32.4872 33.5007C33.1356 32.8586 33.5 31.9868 33.5 31.0775V22.3658C33.5 21.6314 33.1721 20.9347 32.6046 20.4635L25.943 15.1743C24.7785 14.2491 23.1154 14.279 21.9854 15.2454L15.467 20.4635C14.8727 20.9208 14.5176 21.6196 14.5 22.3658V31.0686C14.5 32.9637 16.0474 34.5 17.9562 34.5H19.8723C20.1992 34.5023 20.5135 34.3751 20.7455 34.1464C20.9775 33.9178 21.1079 33.6067 21.1079 33.2821H21.1437Z" fill="url(#paint0_linear_40_440)"/>
<defs>
<linearGradient id="paint0_linear_40_440" x1="14.1833" y1="13.6511" x2="24.5887" y2="25.1621" gradientUnits="userSpaceOnUse">
<stop stop-color="#273A97"/>
<stop offset="1" stop-color="#2E46BE"/>
</linearGradient>
</defs>
</svg>
