<svg width="48" height="49" viewBox="0 0 48 49" fill="none" xmlns="http://www.w3.org/2000/svg">
<path fill-rule="evenodd" clip-rule="evenodd" d="M20.5316 15.4368C22.7165 14.1673 25.402 14.1895 27.5664 15.4949C29.7095 16.8269 31.012 19.2042 30.9998 21.7614C30.95 24.3019 29.5533 26.69 27.8075 28.5361C26.7998 29.6064 25.6726 30.5528 24.4488 31.356C24.3228 31.4289 24.1848 31.4777 24.0415 31.5C23.9036 31.4941 23.7693 31.4534 23.6508 31.3814C21.7824 30.1746 20.1433 28.634 18.8123 26.834C17.6986 25.3314 17.0658 23.516 17 21.6344C16.9986 19.0722 18.3468 16.7063 20.5316 15.4368ZM21.7942 22.6948C22.1617 23.6008 23.0292 24.1918 23.9916 24.1918C24.6221 24.1964 25.2282 23.9438 25.6748 23.4905C26.1214 23.0371 26.3715 22.4206 26.3692 21.7784C26.3726 20.798 25.7955 19.9123 24.9073 19.5348C24.0191 19.1572 22.995 19.3623 22.3133 20.0543C21.6316 20.7463 21.4266 21.7887 21.7942 22.6948Z" fill="url(#paint0_linear_40_448)"/>
<ellipse opacity="0.4" cx="24" cy="33.5" rx="5" ry="1" fill="url(#paint1_linear_40_448)"/>
<defs>
<linearGradient id="paint0_linear_40_448" x1="16.7667" y1="13.7784" x2="25.6485" y2="22.2961" gradientUnits="userSpaceOnUse">
<stop stop-color="#273A97"/>
<stop offset="1" stop-color="#2E46BE"/>
</linearGradient>
<linearGradient id="paint1_linear_40_448" x1="18.8333" y1="32.4151" x2="19.1823" y2="34.4469" gradientUnits="userSpaceOnUse">
<stop stop-color="#273A97"/>
<stop offset="1" stop-color="#2E46BE"/>
</linearGradient>
</defs>
</svg>
