<svg width="156" height="156" viewBox="0 0 156 156" fill="none" xmlns="http://www.w3.org/2000/svg">
<g filter="url(#filter0_di_40_398)">
<rect x="23" y="23" width="110" height="110" rx="55" fill="url(#paint0_linear_40_398)"/>
<rect x="56" y="56" width="44" height="44" rx="22" fill="url(#paint1_linear_40_398)"/>
<path d="M82.7827 77.7616H78.7174V69.7342C78.7174 69.3289 78.396 69 78.0001 69C77.6042 69 77.2828 69.3289 77.2828 69.7342V77.7616H73.2174C72.9564 77.7616 72.7154 77.9065 72.5891 78.1415C72.4629 78.3754 72.4715 78.6613 72.6102 78.8864L77.3928 86.6564C77.5248 86.8708 77.7534 87 78.0001 87C78.2468 87 78.4754 86.8708 78.6074 86.6564L81.5825 81.8213C81.7939 81.4797 81.6935 81.0255 81.3588 80.8091C81.0231 80.5937 80.5803 80.6965 80.3689 81.0401L78.0001 84.8874L74.5162 79.2301H82.7827C83.1787 79.2301 83.5 78.9011 83.5 78.4958C83.5 78.0906 83.1787 77.7616 82.7827 77.7616Z" fill="url(#paint2_linear_40_398)"/>
<path d="M80.7723 116.694L80.7853 117.87L76.5855 117.917L76.5725 116.741L80.7723 116.694Z" fill="white"/>
<path d="M69.1991 115.727L68.8638 116.854L64.8382 115.656L65.1736 114.529L69.1991 115.727Z" fill="white"/>
<path d="M58.4298 111.38L57.7761 112.357L54.2848 110.023L54.9386 109.045L58.4298 111.38Z" fill="white"/>
<path d="M49.4281 104.042L48.5145 104.782L45.87 101.52L46.7836 100.779L49.4281 104.042Z" fill="white"/>
<path d="M43.6994 82.0587C43.7772 82.7778 43.7246 83.4407 43.5416 84.0473C43.3533 84.6497 43.0499 85.1637 42.6313 85.5892C42.2076 86.0106 41.6839 86.3114 41.0603 86.4916L40.6664 84.9994C41.2622 84.7799 41.7054 84.4081 41.996 83.8837C42.2819 83.3599 42.3897 82.7732 42.3193 82.1237C42.2756 81.72 42.1728 81.3557 42.0108 81.0305C41.8442 80.7059 41.6316 80.4544 41.3729 80.2758C41.109 80.0932 40.81 80.02 40.476 80.0561C40.295 80.0757 40.1385 80.1256 40.0063 80.2056C39.8737 80.281 39.7624 80.3799 39.6724 80.5023C39.5772 80.6205 39.5011 80.7626 39.4439 80.9283C39.3816 81.09 39.3327 81.2666 39.2971 81.4582L38.8167 84.1084C38.7696 84.3669 38.7021 84.6324 38.6143 84.9048C38.5218 85.1777 38.3922 85.4334 38.2256 85.6721C38.0539 85.9066 37.8338 86.1065 37.5653 86.2717C37.2923 86.4374 36.9516 86.5424 36.5433 86.5866C35.9262 86.6534 35.3872 86.5522 34.9262 86.2829C34.4601 86.0095 34.0886 85.6132 33.8117 85.094C33.5302 84.5753 33.353 83.9796 33.2802 83.3069C33.2161 82.6285 33.2711 82.01 33.4453 81.4513C33.619 80.888 33.9048 80.4064 34.3028 80.0066C34.6955 79.6026 35.1932 79.2999 35.7957 79.0985L36.229 80.6288C35.8607 80.7391 35.5543 80.9225 35.3099 81.1789C35.0607 81.4359 34.8821 81.7369 34.774 82.0819C34.6612 82.4274 34.6233 82.7929 34.6604 83.1785C34.6913 83.5507 34.7839 83.8856 34.9382 84.1834C35.092 84.4766 35.288 84.7041 35.5261 84.8661C35.7638 85.0234 36.0241 85.0868 36.3071 85.0561C36.5855 85.026 36.8017 84.9204 36.9558 84.7394C37.1099 84.5584 37.2251 84.3441 37.3016 84.0964C37.3729 83.8446 37.4282 83.5969 37.4675 83.3533L37.789 81.4455C37.8288 81.2065 37.8886 80.9349 37.9683 80.6305C38.0428 80.322 38.1627 80.0204 38.3279 79.7255C38.4926 79.426 38.7275 79.1682 39.0327 78.9521C39.3333 78.7365 39.7271 78.6023 40.2142 78.5496C40.72 78.4948 41.1764 78.5486 41.5836 78.7111C41.9861 78.874 42.3367 79.12 42.6352 79.4491C42.9285 79.7741 43.1653 80.1615 43.3455 80.6114C43.5256 81.0613 43.6436 81.5437 43.6994 82.0587Z" fill="white"/>
<path d="M44.8137 68.3453C44.6039 69.091 44.2595 69.6777 43.7805 70.1052C43.3014 70.5328 42.733 70.8044 42.0751 70.9198C41.4185 71.0308 40.7212 70.9849 39.9832 70.7821C39.2343 70.5666 38.6121 70.2364 38.1167 69.7916C37.6168 69.3456 37.2769 68.8136 37.0968 68.1958C36.9167 67.5779 36.9303 66.9006 37.1376 66.1639C37.3613 65.3688 37.7498 64.746 38.3031 64.2957C38.8577 63.8409 39.5039 63.6204 40.2418 63.634L40.2518 65.1494C39.8038 65.1736 39.4226 65.3136 39.1083 65.5694C38.7907 65.8194 38.5744 66.1488 38.4594 66.5576C38.3292 67.0203 38.3325 67.4308 38.4692 67.7893C38.6014 68.1464 38.836 68.4499 39.1729 68.6999C39.5098 68.9498 39.9202 69.1452 40.4041 69.2862C41.1556 69.4928 41.81 69.4927 42.3675 69.286C42.9263 69.0747 43.2992 68.6367 43.4862 67.9718C43.6139 67.5181 43.6136 67.1229 43.4853 66.7863C43.3538 66.4439 43.1135 66.1436 42.7643 65.8853L43.5032 64.5516C44.146 64.9894 44.5812 65.536 44.8088 66.1915C45.032 66.8457 45.0336 67.5637 44.8137 68.3453Z" fill="white"/>
<path d="M48.2422 59.8426L42.0103 55.5627L42.7474 54.4894L44.2592 55.5277L43.96 55.543C43.8128 55.3287 43.6988 55.1031 43.6179 54.8664C43.5332 54.6271 43.4925 54.3897 43.4957 54.1541C43.4886 53.9171 43.5204 53.6813 43.5909 53.4467C43.6603 53.2056 43.7592 52.9792 43.8876 52.7674C44.0123 52.5529 44.1566 52.3633 44.3207 52.1986L45.4517 52.9754C45.2578 53.1422 45.0865 53.3586 44.9379 53.6245C44.7919 53.8866 44.7149 54.1677 44.7068 54.4679C44.6991 54.7513 44.7459 55.0127 44.8475 55.2523C44.9517 55.4881 45.0981 55.7075 45.2869 55.9108C45.4718 56.1114 45.6874 56.2962 45.9336 56.4653L49.0784 58.6251L48.2422 59.8426Z" fill="white"/>
<path d="M57.5953 49.9907C56.9834 50.4348 56.3527 50.682 55.7032 50.7325C55.0536 50.783 54.4307 50.6556 53.8343 50.3503C53.239 50.0385 52.7111 49.5654 52.2506 48.9309C51.7874 48.2926 51.505 47.6413 51.4034 46.9769C51.2991 46.3088 51.3743 45.6776 51.6292 45.0832C51.8813 44.4851 52.3076 43.9682 52.9081 43.5323C53.5199 43.0883 54.1506 42.841 54.8002 42.7905C55.4497 42.7401 56.0726 42.8675 56.669 43.1727C57.2653 43.478 57.7924 43.946 58.2501 44.5767C58.7134 45.215 58.9972 45.8682 59.1015 46.5363C59.2068 47.1979 59.1348 47.8297 58.8855 48.4316C58.6334 49.0297 58.2033 49.5494 57.5953 49.9907ZM56.7853 48.8747C57.3707 48.4498 57.6644 47.9368 57.6664 47.3357C57.6694 46.7281 57.4447 46.1127 56.9925 45.4895C56.5292 44.8512 56.0119 44.4482 55.4404 44.2806C54.87 44.1064 54.2959 44.229 53.7181 44.6484C53.3215 44.9362 53.0606 45.2639 52.9353 45.6316C52.8073 45.9955 52.7961 46.3813 52.9017 46.789C53.0046 47.193 53.2068 47.6027 53.5083 48.0181C53.9743 48.6602 54.4944 49.0669 55.0686 49.2384C55.6427 49.4098 56.215 49.2886 56.7853 48.8747Z" fill="white"/>
<path d="M66.5597 44.9987L63.3825 35.2115L64.774 34.7598L67.9513 44.5469L66.5597 44.9987Z" fill="white"/>
<path d="M74.9238 43.1615L74.2221 32.8954L75.6817 32.7957L76.3834 43.0617L74.9238 43.1615Z" fill="white"/>
<path d="M93.2632 46.6707C92.6331 46.3553 92.1668 45.9263 91.8644 45.3835C91.5661 44.8429 91.4265 44.2407 91.4456 43.5771C91.4709 42.9113 91.6527 42.2404 91.991 41.5644C92.3315 40.8841 92.7606 40.3396 93.2783 39.9307C93.7981 39.5177 94.3648 39.2717 94.9784 39.1926C95.5983 39.1114 96.2254 39.2296 96.8597 39.5471C97.4982 39.8666 97.9562 40.2915 98.2335 40.8217C98.5172 41.3498 98.6349 41.9384 98.5866 42.5874C98.5425 43.2385 98.3513 43.9021 98.013 44.5782C97.6746 45.2543 97.2581 45.8051 96.7633 46.2306C96.2685 46.6562 95.7227 46.9179 95.1257 47.0158C94.5309 47.1094 93.9101 46.9944 93.2632 46.6707ZM94.0369 45.5784C94.4667 45.7936 94.8684 45.8668 95.242 45.798C95.6156 45.7293 95.9548 45.5468 96.2597 45.2506C96.5645 44.9544 96.8338 44.5725 97.0678 44.1051C97.3017 43.6377 97.4438 43.1922 97.494 42.7686C97.5484 42.347 97.4922 41.9693 97.3254 41.6353C97.1627 41.3034 96.8769 41.0351 96.4679 40.8304C96.0339 40.6132 95.6239 40.541 95.2377 40.6139C94.8516 40.6868 94.4999 40.8683 94.1826 41.1582C93.8694 41.4503 93.6021 41.8175 93.3807 42.2599C93.1572 42.7064 93.0214 43.1446 92.9733 43.5745C92.9314 44.0023 92.9928 44.3906 93.1575 44.7391C93.3264 45.0898 93.6196 45.3696 94.0369 45.5784ZM95.3729 47.4917L97.8071 42.6278L97.6569 42.5526L99.734 38.4024L101.049 39.0603L96.5372 48.0744L95.3729 47.4917Z" fill="white"/>
<path d="M104.028 54.7601C103.526 54.1941 103.219 53.5902 103.106 52.9486C102.993 52.307 103.06 51.6747 103.306 51.0516C103.559 50.4289 103.979 49.8578 104.566 49.3381C105.156 48.8153 105.777 48.4713 106.429 48.3059C107.084 48.1375 107.719 48.1514 108.335 48.3475C108.955 48.5406 109.511 48.9149 110.003 49.4705C110.504 50.0366 110.811 50.6404 110.924 51.282C111.037 51.9236 110.97 52.556 110.724 53.179C110.478 53.8021 110.063 54.3719 109.48 54.8885C108.889 55.4113 108.266 55.7569 107.611 55.9253C106.963 56.0942 106.327 56.0836 105.704 55.8936C105.084 55.7005 104.526 55.3227 104.028 54.7601ZM105.06 53.846C105.54 54.3876 106.079 54.6304 106.677 54.5742C107.282 54.5185 107.873 54.2354 108.449 53.725C109.04 53.2022 109.391 52.6483 109.503 52.0634C109.621 51.4788 109.443 50.9192 108.97 50.3846C108.645 50.0177 108.294 49.7897 107.916 49.7006C107.541 49.6084 107.156 49.6345 106.761 49.7791C106.368 49.9205 105.98 50.1614 105.596 50.5016C105.002 51.0275 104.647 51.5845 104.532 52.1725C104.417 52.7606 104.593 53.3184 105.06 53.846Z" fill="white"/>
<path d="M110.531 64.3239L117.07 59.8708L117.494 61.2565L113.011 64.3076L118.438 64.2911L118.812 65.4942L114.333 68.5587L119.756 68.5288L120.184 69.9058L112.279 69.9453L111.93 68.8224L116.633 65.5122L110.88 65.4469L110.531 64.3239Z" fill="white"/>
<path d="M112.646 83.9644L116.335 84.415C116.627 84.4507 116.929 84.4617 117.241 84.4481C117.557 84.4396 117.855 84.3821 118.136 84.2754C118.417 84.1733 118.653 84.0071 118.846 83.7767C119.038 83.551 119.159 83.239 119.207 82.8406C119.239 82.5812 119.225 82.3303 119.165 82.0879C119.11 81.8461 118.998 81.6256 118.83 81.4264C118.661 81.2318 118.427 81.0646 118.13 80.9248C117.831 80.7896 117.459 80.6949 117.015 80.6406L117.466 79.7789C118.146 79.862 118.731 80.0627 119.218 80.3808C119.711 80.6995 120.074 81.1153 120.307 81.628C120.541 82.1408 120.616 82.7353 120.534 83.4116C120.47 83.9304 120.334 84.3557 120.124 84.6874C119.914 85.0191 119.659 85.2771 119.36 85.4614C119.064 85.6509 118.749 85.7841 118.415 85.8609C118.081 85.9376 117.759 85.9782 117.448 85.9825C117.137 85.9869 116.866 85.9749 116.635 85.9466L112.466 85.4374L112.646 83.9644ZM113.29 78.6906L120.794 79.6071L120.635 80.9065L118.467 80.6417L118.446 80.8154L113.11 80.1636L113.29 78.6906Z" fill="white"/>
<path d="M109.66 100.686L110.573 101.426L107.929 104.689L107.015 103.949L109.66 100.686Z" fill="white"/>
<path d="M101.529 108.978L102.183 109.956L98.6914 112.291L98.0377 111.313L101.529 108.978Z" fill="white"/>
<path d="M91.3093 114.495L91.6447 115.622L87.6191 116.82L87.2837 115.693L91.3093 114.495Z" fill="white"/>
<path d="M79.9153 116.742L79.9023 117.918L75.7025 117.872L75.7155 116.696L79.9153 116.742Z" fill="white"/>
</g>
<defs>
<filter id="filter0_di_40_398" x="0" y="0" width="156" height="156" filterUnits="userSpaceOnUse" color-interpolation-filters="sRGB">
<feFlood flood-opacity="0" result="BackgroundImageFix"/>
<feColorMatrix in="SourceAlpha" type="matrix" values="0 0 0 0 0 0 0 0 0 0 0 0 0 0 0 0 0 0 127 0" result="hardAlpha"/>
<feOffset/>
<feGaussianBlur stdDeviation="11.5"/>
<feComposite in2="hardAlpha" operator="out"/>
<feColorMatrix type="matrix" values="0 0 0 0 0.8625 0 0 0 0 0.8625 0 0 0 0 0.8625 0 0 0 0.14 0"/>
<feBlend mode="normal" in2="BackgroundImageFix" result="effect1_dropShadow_40_398"/>
<feBlend mode="normal" in="SourceGraphic" in2="effect1_dropShadow_40_398" result="shape"/>
<feColorMatrix in="SourceAlpha" type="matrix" values="0 0 0 0 0 0 0 0 0 0 0 0 0 0 0 0 0 0 127 0" result="hardAlpha"/>
<feOffset dx="-3" dy="-3"/>
<feGaussianBlur stdDeviation="2"/>
<feComposite in2="hardAlpha" operator="arithmetic" k2="-1" k3="1"/>
<feColorMatrix type="matrix" values="0 0 0 0 0.2375 0 0 0 0 0.2375 0 0 0 0 0.2375 0 0 0 0.25 0"/>
<feBlend mode="normal" in2="shape" result="effect2_innerShadow_40_398"/>
</filter>
<linearGradient id="paint0_linear_40_398" x1="12.55" y1="23" x2="141.8" y2="144.55" gradientUnits="userSpaceOnUse">
<stop stop-color="#282727"/>
<stop offset="1" stop-color="#0F0F0F"/>
</linearGradient>
<linearGradient id="paint1_linear_40_398" x1="94.5" y1="92.5" x2="50.5" y2="56" gradientUnits="userSpaceOnUse">
<stop stop-color="#282727"/>
<stop offset="1" stop-color="#0F0F0F"/>
</linearGradient>
<linearGradient id="paint2_linear_40_398" x1="71.73" y1="65.76" x2="90.4474" y2="79.5503" gradientUnits="userSpaceOnUse">
<stop stop-color="#FFA368"/>
<stop offset="1" stop-color="#F96C0C"/>
</linearGradient>
</defs>
</svg>
